<svg xmlns="http://www.w3.org/2000/svg" xmlns:xlink="http://www.w3.org/1999/xlink" viewBox="0 0 273.49 231.01"><defs><style>.cls-1{fill:url(#linear-gradient);}.cls-2{fill:#fff;}</style><linearGradient id="linear-gradient" x1="332.28" y1="-48.23" x2="-164.78" y2="367.98" gradientUnits="userSpaceOnUse"><stop offset="0" stop-color="#f47d21"/><stop offset="0.38" stop-color="#f25e2c"/><stop offset="0.77" stop-color="#f04436"/><stop offset="1" stop-color="#ef3b39"/></linearGradient></defs><title>Asset 7</title><g id="Layer_2" data-name="Layer 2"><g id="Layer_1-2" data-name="Layer 1"><rect class="cls-1" width="273.49" height="231.01"/><path class="cls-2" d="M105.42,173.9c0,3.11.22,6.1,0,9-.35,3.8-3.12,6.23-7,6.38-3,.11-6,.12-8.94,0a7,7,0,0,1-7.12-7.24c-.13-4.31,0-8.64-.11-13a3.66,3.66,0,0,0-.9-2.38A22.31,22.31,0,0,1,74.42,150q-.09-38.41,0-76.84c0-5.26.82-10.4,3.64-15,3.75-6.14,9.5-9.59,16.06-11.89a71.43,71.43,0,0,1,21.2-4c11.06-.4,22.13-.81,33.19-.64,10.44.16,20.87,1.13,30.85,4.64,6.75,2.37,12.62,6,16.33,12.37,2.68,4.62,3.37,9.72,3.38,14.92q.07,38.06,0,76.11c0,6.66-2.07,12.52-7.05,17.2a3.2,3.2,0,0,0-.76,2.08c-.07,4,0,7.91,0,11.86,0,5.84-2.8,8.56-8.65,8.56h-6.21c-5.56,0-8.4-2.82-8.51-8.41,0-2.3,0-4.61,0-7.06Zm78-101.23H90.14v38.72h93.29Zm-81.65,62.25A11.93,11.93,0,0,0,90,146.45a12.09,12.09,0,0,0,11.59,11.77c6,.1,11.72-5.48,11.76-11.6A12,12,0,0,0,101.78,134.92Zm70.09,0a12,12,0,0,0-11.75,11.54c-.08,6.1,5.42,11.66,11.61,11.76s11.69-5.46,11.73-11.61A11.93,11.93,0,0,0,171.87,134.92Z"/></g></g></svg>