<svg xmlns="http://www.w3.org/2000/svg" xmlns:xlink="http://www.w3.org/1999/xlink" viewBox="0 0 273.49 231.01"><defs><style>.cls-1{fill:url(#linear-gradient);}.cls-2{fill:#fff;}</style><linearGradient id="linear-gradient" x1="332.28" y1="-48.23" x2="-164.78" y2="367.98" gradientUnits="userSpaceOnUse"><stop offset="0" stop-color="#f47d21"/><stop offset="0.38" stop-color="#f25e2c"/><stop offset="0.77" stop-color="#f04436"/><stop offset="1" stop-color="#ef3b39"/></linearGradient></defs><title>Asset 5</title><g id="Layer_2" data-name="Layer 2"><g id="Layer_1-2" data-name="Layer 1"><rect class="cls-1" width="273.49" height="231.01"/><path class="cls-2" d="M190.37,163.71H83.18v1.75c0,2.43,0,4.86,0,7.29,0,3.2-1.93,5.06-5.11,5.07H60.18c-3.27,0-5.16-1.85-5.17-5.11,0-17.6,0-35.2,0-52.8a20.44,20.44,0,0,1,5.16-13.53c2.5-2.9,5-5.77,7.64-8.8-.82-.24-1.53-.46-2.25-.66l-9-2.47a5.75,5.75,0,0,1-4.39-6.08A5.7,5.7,0,0,1,58,83.2c3,0,6,0,8.94,0a7.76,7.76,0,0,1,5.69,2.23c.66.64,1.35,1.25,2.12,2,.2-.41.37-.74.53-1.09A182.11,182.11,0,0,1,86.64,64c.12-.19.25-.37.35-.56,2.79-5.35,7.53-7.47,13.22-8.34,11.14-1.71,22.35-2,33.58-1.94,8.35,0,16.71.14,25.06.48a83.13,83.13,0,0,1,19.08,2.55A12.21,12.21,0,0,1,184.76,61,110.3,110.3,0,0,1,194.38,78c1.49,3.06,2.87,6.18,4.34,9.35L201,85.26a7.34,7.34,0,0,1,5.2-2.06c3.09,0,6.18,0,9.27,0A5.69,5.69,0,0,1,217,94.43c-3.53,1-7.07,1.94-10.61,2.92a6.73,6.73,0,0,0-.71.26c2.26,2.6,4.41,5.15,6.65,7.63a22.07,22.07,0,0,1,5.78,11.2,21.84,21.84,0,0,1,.34,3.51q0,26.46,0,52.91a4.62,4.62,0,0,1-5,4.95q-9.1,0-18.22,0a4.57,4.57,0,0,1-4.91-4.88c0-2.65,0-5.3,0-8ZM192.7,94a4.93,4.93,0,0,0-.17-.57c-4.48-8.73-9-17.44-13.43-26.19a6.52,6.52,0,0,0-5.35-3.85c-.95-.12-1.88-.36-2.82-.49a173.44,173.44,0,0,0-23.66-1.53c-9.76,0-19.52,0-29.26.27-5.62.17-11.21,1-16.81,1.47A8.34,8.34,0,0,0,93.88,68C90.38,75.15,86.62,82.14,83,89.2c-.79,1.52-1.48,3.1-2.3,4.81A540.38,540.38,0,0,1,192.7,94ZM76.61,109.88c-.8.1-1.61.15-2.4.3-7.34,1.4-10.76,10.47-6.1,16.23a12,12,0,0,0,7.09,4.15c3.78.81,7.52.87,11.08-.92a6.33,6.33,0,0,0,3.78-6C90,116.83,85.3,110,76.61,109.88Zm130.92,10.25a15.19,15.19,0,0,0-.22-1.85c-1.33-6.08-7.07-9.5-13.44-8a13.31,13.31,0,0,0-10.28,11.22c-.66,4.67,1.11,7.68,5.5,8.93a17,17,0,0,0,12.56-1.06A9.8,9.8,0,0,0,207.53,120.13Zm-70.72,15.56H119.7c-1.68,0-2.34.62-2.36,2.2,0,2,0,4,0,6a1.91,1.91,0,0,0,2.17,2.07H154a1.9,1.9,0,0,0,2.18-2.16c0-1.8,0-3.6,0-5.41,0-2.14-.52-2.66-2.67-2.67Z"/></g></g></svg>