<svg xmlns="http://www.w3.org/2000/svg" xmlns:xlink="http://www.w3.org/1999/xlink" viewBox="0 0 273.49 232.01"><defs><style>.cls-1{fill:url(#linear-gradient);}.cls-2{fill:#fff;}</style><linearGradient id="linear-gradient" x1="332.28" y1="-48.23" x2="-164.78" y2="367.98" gradientUnits="userSpaceOnUse"><stop offset="0" stop-color="#f47d21"/><stop offset="0.38" stop-color="#f25e2c"/><stop offset="0.77" stop-color="#f04436"/><stop offset="1" stop-color="#ef3b39"/></linearGradient></defs><title>Asset 11</title><g id="Layer_2" data-name="Layer 2"><g id="Layer_1-2" data-name="Layer 1"><rect class="cls-1" width="273.49" height="231.01"/><path class="cls-2" d="M49.06,231.63,92.89,175c-3.41-3.32-7.11-6.06-9.6-9.64a18.41,18.41,0,0,1-3.12-9.8q-.36-45.72-.1-91.44a19.85,19.85,0,0,1,19.08-19.8c11.58-.47,23.2-.25,34.79-.24,13.76,0,27.53-.13,41.28.32,9.33.3,18,9.23,18.14,18.52.29,16.72.17,33.44.2,50.16,0,12.28-.29,24.57.09,36.85.33,10.86-2.78,19.42-13.71,24.17,14.84,19.2,29.47,38.11,44.49,57.52-6.26,0-12.06.11-17.85-.11-.91,0-2.07-1.4-2.6-2.41-3.67-7.06-9.24-8.78-17.14-8.67-35.82.49-71.66.24-107.48.17-2.41,0-4.22.46-5.3,2.7-3.53,7.29-9.38,9.69-17.18,8.43C54.56,231.31,52.13,231.63,49.06,231.63Zm132.16-121v-3q0-16,0-32c0-9.22-5.89-15.5-15.14-15.57-19.54-.15-39.08-.12-58.62,0-8.12.05-14.85,5.68-15,12.84-.27,12.38-.07,24.76,0,37.14,0,.18.26.35.46.6ZM83.1,211.27H190.17c-4.35-5.73-8.39-11.16-12.59-16.45a4.2,4.2,0,0,0-3-1.06q-38-.09-76,0c-.85,0-2.08.05-2.5.57C91.78,199.78,87.6,205.36,83.1,211.27Zm75.32-91.75H115.69v13h42.73Zm-54.21,64.54h65.11c-1.91-2.58-3.45-4.95-5.3-7a5,5,0,0,0-3.31-1.59c-16-.11-32-.09-48,0a3.83,3.83,0,0,0-2.65.89C108.05,178.68,106.27,181.27,104.21,184.06Zm2.61-34.43a6,6,0,0,0-6-6.35,6.16,6.16,0,1,0,0,12.31A5.75,5.75,0,0,0,106.82,149.63Zm65.77,6a6.39,6.39,0,0,0,6.49-6,6.33,6.33,0,0,0-6.25-6.27,6,6,0,0,0-6.13,5.92C166.59,152.94,169,155.54,172.59,155.59ZM151,149.46a5.93,5.93,0,0,0,6.2,6.13,6.16,6.16,0,1,0,0-12.31A6,6,0,0,0,151,149.46Zm-28.56-.13a6,6,0,0,0-6.32-6.05,6.2,6.2,0,0,0-6,6.07,6.33,6.33,0,0,0,6.27,6.24A5.94,5.94,0,0,0,122.48,149.33Z"/></g></g></svg>