<svg xmlns="http://www.w3.org/2000/svg" xmlns:xlink="http://www.w3.org/1999/xlink" viewBox="0 0 273.49 231.01"><defs><style>.cls-1{fill:url(#linear-gradient);}.cls-2{fill:#fff;}</style><linearGradient id="linear-gradient" x1="332.28" y1="-48.23" x2="-164.78" y2="367.98" gradientUnits="userSpaceOnUse"><stop offset="0" stop-color="#f47d21"/><stop offset="0.38" stop-color="#f25e2c"/><stop offset="0.77" stop-color="#f04436"/><stop offset="1" stop-color="#ef3b39"/></linearGradient></defs><title>Asset 6</title><g id="Layer_2" data-name="Layer 2"><g id="Layer_1-2" data-name="Layer 1"><rect class="cls-1" width="273.49" height="231.01"/><path class="cls-2" d="M181,101.76l-3.85-12.28-.57-.34a12.55,12.55,0,0,1-1,1.56q-19.2,21.4-38.43,42.77a3.34,3.34,0,0,0-1,3.28c.94,4.79-1.88,8.24-7.47,9.37l-2.89,12.31a4.65,4.65,0,0,1,1.71.18,3.16,3.16,0,0,1,1.46,1.45,3.6,3.6,0,0,1,0,2.27c-.18.56-.84,1.33-1.32,1.35-2.73.13-5.48.13-8.21,0-.46,0-1-.83-1.28-1.37-.18-.32,0-.84,0-1.25-.34-2.06.57-2.81,2.55-2.5a6,6,0,0,0,1.07-.08c1-4.21,2.06-8.47,3-12.75.07-.34-.31-.85-.59-1.19s-1-.68-1.2-1.15c-1.51-3.61-4.55-2.53-7.41-2.53-1.64,14.92-8.76,26.24-22.15,33.15a38.36,38.36,0,0,1-31,2.13A40.07,40.07,0,0,1,37.9,124.08c8.44-22,32.11-30.34,50.35-23.69L85.72,105c-11.73-3-22.52-1.36-32,6.22A32.77,32.77,0,0,0,41,133.76C38.78,153.91,53,171.31,72.6,172.84c19.12,1.49,36.24-13.11,37.29-31.92-.55,0-1.09-.13-1.64-.13-8.92,0-17.83,0-26.75.05a5,5,0,0,0-2.71,1.1,5.12,5.12,0,0,1-5.69.68,4.87,4.87,0,0,1-2.58-5.1c.3-2.19,1.69-3.39,3.68-4.18a4.55,4.55,0,0,0,2.24-1.77c9.73-17.46,19.38-34.95,29.11-52.41a4.46,4.46,0,0,0,.36-4c-1.22-3.64-2.29-7.33-3.46-11.09-3.86,1.79-7.09.89-10.09-1.59-1.46-1.2-3.07-2.23-4.58-3.37a4,4,0,0,1-1.48-4.82c.79-1.84,2.27-1.79,4-1.76,8,.13,16,.08,24,.1,1.26,0,2.53,0,3.78.06a2.45,2.45,0,0,1,2.43,2.85c0,1.58-.9,2.42-2.63,2.67-3.35.48-6.67,1.25-10.09,1.91a18.74,18.74,0,0,0,.28,2c1.41,4.55,2.9,9.08,4.22,13.65a2.27,2.27,0,0,0,2.62,2c15.3-.06,30.61,0,45.92-.05h12.88c-1.36-4.47-2.66-8.73-4-13-1.07-3.46.11-5.1,3.71-5.1,7.72,0,15.45-.07,23.17,0a12.15,12.15,0,0,1,2.2,24.14,9,9,0,0,1-1.46.15c-2,0-3.37-1.08-3.48-2.86s1-3,3-3.33c4-.55,6.08-2.8,5.9-6.27S200,65.82,196,65.82H176.35c.54,1.83,1,3.48,1.5,5.11q8.44,27.3,16.9,54.59c.66,2.13,1.54,4.21,2.35,6.3.54,1.41,1,2.74,2.79,3.31s2.29,2.81,1.6,4.47a3.63,3.63,0,0,1-4.28,2.18c-1.91-.52-3.3-2.3-2.72-4.11.51-1.57-.08-2.68-.64-3.95-3.8-8.73-7.59-17.46-11.46-26.37a29.93,29.93,0,0,0-10,7.58c-9,10.38-11.48,22.26-6.83,35.11s14.07,20.48,27.59,22.42c22.17,3.18,41-14.49,39.54-36.86-1.15-18-16.82-32.33-35.14-32-4.6.08-4.6.08-5.39-4.72,13.78-3.08,33.86,3.93,42.53,23a40.12,40.12,0,0,1-71.35,36.47C152.59,139.67,158,113.37,181,101.76ZM115.09,83.88a9.75,9.75,0,0,0,.21,1.53q6.66,21.9,13.36,43.8c.59,1.93,2.38,2.2,3.82.61q20.13-22.26,40.24-44.53c.34-.38.61-.83,1-1.41ZM94.43,109.23,79.77,135.94c1,.06,1.46.11,1.94.11q18.54,0,37.07,0a4.21,4.21,0,0,0,4-5.56L110,88.7c-.46-1.49-1-3-1.62-4.92-4,7.19-7.64,13.91-11.36,20.66a40.48,40.48,0,0,1,17.73,26.22h-5.48A35.11,35.11,0,0,0,94.43,109.23Z"/><path class="cls-2" d="M131.43,117.37c-2.69-.31-3.75-2.1-2.78-4.6a1.83,1.83,0,0,1,1.43-.79c2.58-.08,5.17,0,7.76,0,1.12,0,1.61.39,1.67,1.59.17,3.33.21,3.27-3.11,3.72a2.29,2.29,0,0,0-1.39,1.37c-.41,1.1-.34,2.41-.87,3.42-.35.68-1.4,1-2.14,1.47-.44-.7-1.23-1.4-1.24-2.11A20.82,20.82,0,0,1,131.43,117.37Z"/></g></g></svg>