<svg xmlns="http://www.w3.org/2000/svg" xmlns:xlink="http://www.w3.org/1999/xlink" viewBox="0 0 273.49 231.01"><defs><style>.cls-1{fill:url(#linear-gradient);}.cls-2{fill:#fff;}</style><linearGradient id="linear-gradient" x1="332.28" y1="-48.23" x2="-164.78" y2="367.98" gradientUnits="userSpaceOnUse"><stop offset="0" stop-color="#f47d21"/><stop offset="0.38" stop-color="#f25e2c"/><stop offset="0.77" stop-color="#f04436"/><stop offset="1" stop-color="#ef3b39"/></linearGradient></defs><title>Asset 10</title><g id="Layer_2" data-name="Layer 2"><g id="Layer_1-2" data-name="Layer 1"><rect class="cls-1" width="273.49" height="231.01"/><path class="cls-2" d="M153.26,175.28c0-4.2.06-8.09,0-12-.14-8.17-4.77-14.19-12.42-15.54-10-1.76-17.52,2.21-20,10.9a22.69,22.69,0,0,0-.61,5.66c-.09,3.57,0,7.13,0,11a22,22,0,0,1-11.89-7.53c-4.56-5.59-5.9-12-4.79-19.05,2.44-15.54,4.91-31.08,7.25-46.64a12.22,12.22,0,0,0-3.08-10.2c-2.8-3.14-4.74-6.55-4.82-11.18H93.26c-2.31,0-4.62,0-6.93,0-2.48-.08-4-1.59-4-3.77a3.83,3.83,0,0,1,4.08-3.79c4.54-.1,9.08,0,13.62,0h3.22c-3.3-3.65-6.16-6.9-9.15-10-.37-.4-1.42-.29-2.13-.21a9.56,9.56,0,0,1-3.58-18.75,9.25,9.25,0,0,1,11.14,6.22c.52,1.82.14,3.89.21,5.85a4,4,0,0,0,.32,1.91,17.2,17.2,0,0,0,2,2.35l7.15,7.87a25.08,25.08,0,0,1,14.18-7,78.28,78.28,0,0,1,8.81-.29c4.46,0,8.92.06,13.38,0,7.12-.14,13.2,2.36,18.68,7.28,3.13-3.47,6.28-6.9,9.3-10.43.36-.42.14-1.46,0-2.17-1.11-5.67,2.28-10.85,7.75-11.75a9.61,9.61,0,0,1,11,8.43c.85,6-4.61,11.3-10.89,10.42a2.71,2.71,0,0,0-2.85.94c-2.59,3-5.27,5.91-8.37,9.36h4.44c4.06,0,8.13-.06,12.18,0,2.62.06,4.29,1.66,4.27,3.87s-1.63,3.69-4.32,3.72c-5.17,0-10.35,0-15.52.07a3.11,3.11,0,0,0-.67.25c-.07,4.42-2.29,7.94-5.16,11.3a12.41,12.41,0,0,0-2.69,10.3c2.42,15.47,4.8,30.95,7.24,46.41,1.83,11.54-4.48,22.35-15.18,25.88C154.46,175.06,154.07,175.11,153.26,175.28ZM136.7,74.79A14.23,14.23,0,1,0,151,88.94,14.27,14.27,0,0,0,136.7,74.79Z"/><path class="cls-2" d="M124.33,175.93c0-4.38,0-8.75,0-13.13a11,11,0,0,1,10-11.15c7.46-1,13,2.25,14.49,8.48a14.08,14.08,0,0,1,.31,3.31c0,8.19,0,16.38,0,24.58,0,8.51-4.5,12.86-13.07,12.67-7.28-.17-11.69-4.64-11.71-11.87,0-1.67,0-3.34,0-5Z"/><path class="cls-2" d="M114.49,59.06c1.31-8.59,4-16.79,10.39-23.31,7.07-7.17,16.29-7.26,23.48-.18,6.58,6.49,9.23,14.8,10.58,23.51A99,99,0,0,0,114.49,59.06Z"/></g></g></svg>