<svg xmlns="http://www.w3.org/2000/svg" xmlns:xlink="http://www.w3.org/1999/xlink" viewBox="0 0 273.49 231.01"><defs><style>.cls-1{fill:url(#linear-gradient);}.cls-2{fill:#fff;}</style><linearGradient id="linear-gradient" x1="332.28" y1="-48.23" x2="-164.78" y2="367.98" gradientUnits="userSpaceOnUse"><stop offset="0" stop-color="#f47d21"/><stop offset="0.38" stop-color="#f25e2c"/><stop offset="0.77" stop-color="#f04436"/><stop offset="1" stop-color="#ef3b39"/></linearGradient></defs><title>Asset 9</title><g id="Layer_2" data-name="Layer 2"><g id="Layer_1-2" data-name="Layer 1"><rect class="cls-1" width="273.49" height="231.01"/><path class="cls-2" d="M173.4,183.6H100.13v1.2c0,1.66,0,3.32,0,5a3.2,3.2,0,0,1-3.49,3.46H84.41a3.19,3.19,0,0,1-3.53-3.49c0-12,0-24.06,0-36.09a13.9,13.9,0,0,1,3.53-9.24c1.7-2,3.43-3.95,5.22-6-.56-.17-1-.33-1.53-.46l-6.17-1.69a3.93,3.93,0,0,1-3-4.15,3.87,3.87,0,0,1,4-3.53c2,0,4.08,0,6.11,0a5.3,5.3,0,0,1,3.89,1.52c.46.44.92.86,1.45,1.35.14-.28.25-.5.36-.74a123.81,123.81,0,0,1,7.75-15.23c.08-.13.17-.25.24-.39,1.91-3.65,5.15-5.1,9-5.7a149.31,149.31,0,0,1,23-1.32c5.71,0,11.43.1,17.13.33a57,57,0,0,1,13.05,1.74,8.38,8.38,0,0,1,4.66,3.24,74.91,74.91,0,0,1,6.58,11.68c1,2.09,2,4.22,3,6.38.55-.5,1.07-1,1.58-1.45a5,5,0,0,1,3.56-1.41h6.34a3.89,3.89,0,0,1,1,7.67c-2.41.68-4.84,1.33-7.26,2a5.12,5.12,0,0,0-.48.19c1.54,1.77,3,3.52,4.55,5.2a15.05,15.05,0,0,1,3.94,7.67,13.73,13.73,0,0,1,.24,2.39q0,18.09,0,36.17a3.16,3.16,0,0,1-3.4,3.38H176.75a3.12,3.12,0,0,1-3.35-3.34c0-1.81,0-3.62,0-5.43ZM175,136a2.23,2.23,0,0,0-.12-.4c-3.06-6-6.14-11.92-9.17-17.89A4.48,4.48,0,0,0,162,115c-.65-.08-1.28-.24-1.93-.33a119.86,119.86,0,0,0-16.17-1c-6.67,0-13.34,0-20,.18-3.84.12-7.66.67-11.49,1a5.7,5.7,0,0,0-5,3.37c-2.4,4.86-5,9.64-7.45,14.46-.54,1.05-1,2.12-1.57,3.29A369.64,369.64,0,0,1,175,136ZM95.64,146.81c-.55.07-1.1.1-1.64.2a7,7,0,0,0-4.17,11.1,8.2,8.2,0,0,0,4.85,2.83,11,11,0,0,0,7.57-.63,4.33,4.33,0,0,0,2.59-4.1C104.77,151.56,101.58,146.9,95.64,146.81Zm89.49,7a12.23,12.23,0,0,0-.15-1.27c-.91-4.15-4.84-6.49-9.19-5.48a9.11,9.11,0,0,0-7,7.67c-.45,3.19.77,5.25,3.76,6.1a11.63,11.63,0,0,0,8.59-.72A6.7,6.7,0,0,0,185.13,153.82Zm-48.34,10.63h-11.7c-1.14,0-1.6.42-1.61,1.5,0,1.36,0,2.72,0,4.08a1.3,1.3,0,0,0,1.48,1.42h23.55A1.3,1.3,0,0,0,150,170c0-1.24,0-2.47,0-3.7,0-1.47-.35-1.83-1.82-1.83Z"/><path class="cls-2" d="M135.62,37.76c15.71.81,28.48,4.85,38.86,14.88a27.06,27.06,0,0,1,4.05,5.21,4.17,4.17,0,0,1-1.35,5.65,4.24,4.24,0,0,1-5.77-.9c-6.33-9-15.63-13.22-25.94-15-13.9-2.41-26.95.21-38.32,9a32.34,32.34,0,0,0-4.58,4.77c-2,2.37-4.44,2.94-6.5,1.38s-2.3-4.26-.36-6.79c6.5-8.47,15.36-13.27,25.47-15.8C126.4,38.89,131.81,38.38,135.62,37.76Z"/><path class="cls-2" d="M135.94,58.36c10.86.33,19.8,3.18,27.4,9.59A29.17,29.17,0,0,1,168,73.22a4.28,4.28,0,0,1-1.16,6,4.35,4.35,0,0,1-5.92-1.07c-6.81-8.59-16.05-11.34-26.54-10.87a31.15,31.15,0,0,0-16,4.86,33.34,33.34,0,0,0-5.86,5.22c-2,2.2-4.54,2.82-6.56,1.22s-2.19-4.22-.32-6.63c5.58-7.19,13.27-10.79,22-12.56C130.66,58.81,133.81,58.63,135.94,58.36Z"/><path class="cls-2" d="M158.43,90.94a4.28,4.28,0,0,1-2.75,4.35,3.79,3.79,0,0,1-4.81-1.24c-4.22-6.1-14.54-8.11-22.15-4.47a19.21,19.21,0,0,0-5,3.8c-2.14,2.14-4.58,2.62-6.59.9s-2.07-4.16-.19-6.47c4.29-5.29,10.12-7.75,16.68-8.53,8.26-1,15.69,1.13,21.9,6.83C157,87.49,158.46,89,158.43,90.94Z"/></g></g></svg>