<svg xmlns="http://www.w3.org/2000/svg" xmlns:xlink="http://www.w3.org/1999/xlink" viewBox="0 0 273.49 231.01"><defs><style>.cls-1{fill:url(#linear-gradient);}.cls-2{fill:#fff;}</style><linearGradient id="linear-gradient" x1="332.28" y1="-48.23" x2="-164.78" y2="367.98" gradientUnits="userSpaceOnUse"><stop offset="0" stop-color="#f47d21"/><stop offset="0.38" stop-color="#f25e2c"/><stop offset="0.77" stop-color="#f04436"/><stop offset="1" stop-color="#ef3b39"/></linearGradient></defs><title>Asset 8</title><g id="Layer_2" data-name="Layer 2"><g id="Layer_1-2" data-name="Layer 1"><rect class="cls-1" width="273.49" height="231.01"/><path class="cls-2" d="M90.45,158.12a43.73,43.73,0,0,1-4.46-.66,11.53,11.53,0,0,1-8.66-11.12c0-27.3-.06-54.59,0-81.89a26.74,26.74,0,0,1,26.57-26.33c13.43-.06,26.87,0,40.31,0H169A26.79,26.79,0,0,1,195.72,60.4a27.29,27.29,0,0,1,.39,4.78q0,40.18,0,80.37c0,7.34-4.85,12.24-12.24,12.38L183,158c.28.48.49.87.73,1.24q8.08,12.53,16.17,25c.89,1.37,1.62,2.79,1.24,4.49a5,5,0,0,1-3.91,4,4.94,4.94,0,0,1-5.35-2.25c-2.13-3.23-4.2-6.51-6.3-9.76-1-1.53-1.9-3.09-3-4.55a2.16,2.16,0,0,0-1.49-.8c-4.59-.06-9.18,0-13.77,0q-37.29,0-74.56,0a2.18,2.18,0,0,0-2.13,1.13c-3,4.7-6,9.37-9,14a4.89,4.89,0,0,1-5.82,2.12,4.78,4.78,0,0,1-3.46-5,7.23,7.23,0,0,1,1.11-3c5.41-8.48,10.88-16.93,16.33-25.38C90,158.89,90.2,158.53,90.45,158.12Zm46.27-54.46h39.69c4.14,0,6.58-2.44,6.58-6.61q0-13.08,0-26.16c0-4-2.46-6.58-6.52-6.58q-39.67,0-79.36,0c-4.24,0-6.64,2.48-6.64,6.7q0,12.9,0,25.78c0,4.5,2.36,6.87,6.83,6.87Zm38.77,61.56c-1.55-2.41-2.94-4.61-4.4-6.77a1.58,1.58,0,0,0-1.15-.5q-33.21,0-66.43,0c-.34,0-.85.07-1,.3-1.51,2.25-3,4.54-4.55,7Zm-38.75-119h0c-5.51,0-11,0-16.54,0a5,5,0,1,0,0,10c11,0,22,0,33.07,0a5,5,0,0,0,4.46-7.44,4.88,4.88,0,0,0-4.56-2.63ZM100.1,138.25a9.49,9.49,0,1,0-9.56-9.4A9.5,9.5,0,0,0,100.1,138.25Zm73.25,0a9.49,9.49,0,1,0-9.45-9.49A9.5,9.5,0,0,0,173.35,138.27Z"/></g></g></svg>