<svg xmlns="http://www.w3.org/2000/svg" viewBox="0 0 795.06 350.19"><defs><style>.cls-1{fill:#f57d23;}</style></defs><title>Logo</title><g id="Layer_2" data-name="Layer 2"><g id="Layer_1-2" data-name="Layer 1"><path class="cls-1" d="M171,20.11A101.15,101.15,0,0,0,144,5.31,113.54,113.54,0,0,0,110.89,0H85.23A102.44,102.44,0,0,0,52.16,5.31a101.15,101.15,0,0,0-27.08,14.8,73.74,73.74,0,0,0-18.24,22,64.06,64.06,0,0,0-3.34,8l-.14.19v.23A60.62,60.62,0,0,0,0,69.11V350.19H68.7V82.65a14,14,0,0,1,14-14h30.82a14,14,0,0,1,14,14V350.19h68.69V69.11a61.93,61.93,0,0,0-6.84-27,79.94,79.94,0,0,0-18.24-22"/><path class="cls-1" d="M298.3,20.11a101,101,0,0,0-27.08-14.8A113.54,113.54,0,0,0,238.16,0H212.5a103.68,103.68,0,0,0-28.25,3.9l.35.28a101.81,101.81,0,0,1,22.94,27.68l.39.75A82.8,82.8,0,0,1,217,68.7h23.72a14,14,0,0,1,13.95,14V350.19h68.69V69.11a61.8,61.8,0,0,0-6.84-27,79.94,79.94,0,0,0-18.24-22"/><path class="cls-1" d="M540.69,20.11A100.91,100.91,0,0,0,513.62,5.32,111.26,111.26,0,0,0,480.55,0H344.3V350.19H413V68.7h70.13a14,14,0,0,1,13.94,14v34.28a14,14,0,0,1-13.94,13.95H433.92v68.7h49.21a13.94,13.94,0,0,1,13.94,13.94v54a13.94,13.94,0,0,1-13.94,13.95H433.92v68.7h46.63a104.14,104.14,0,0,0,33.07-5.31,100.66,100.66,0,0,0,27.07-14.8,73.59,73.59,0,0,0,18.24-22,61.66,61.66,0,0,0,6.84-27V206.65a45.26,45.26,0,0,0-4.84-19,59.34,59.34,0,0,0-10.83-14.8,93.76,93.76,0,0,0-9.26-7.62l.11,0,7.16-5.75a19.06,19.06,0,0,0,2-1.86,61.09,61.09,0,0,0,10.83-14.56,45.3,45.3,0,0,0,4.84-19v-55a61.69,61.69,0,0,0-6.84-27,73.59,73.59,0,0,0-18.24-22"/><rect class="cls-1" x="586.7" width="68.7" height="350.19"/><path class="cls-1" d="M726.38,0V116.93a14,14,0,0,1-14,13.95H676.32v68.7h36.11a14,14,0,0,1,14,13.94V350.19h68.68V0Z"/></g></g></svg>