<svg xmlns="http://www.w3.org/2000/svg" viewBox="0 0 170.92 200.74"><defs><style>.cls-1{fill:#fff;}.cls-2{fill:none;stroke:#fff;stroke-linecap:round;stroke-miterlimit:10;stroke-width:6px;}</style></defs><title>Asset 3</title><g id="Layer_2" data-name="Layer 2"><g id="Layer_1-2" data-name="Layer 1"><path class="cls-1" d="M89.16,112.86H66.86v56.75H80.92V125.88h8.5c6,0,7.81,3,7.81,6.94s-1.82,7-7.81,7H85.16v13h4c15.45,0,22.3-8.5,22.3-20S104.61,112.86,89.16,112.86Z"/><path class="cls-1" d="M145.61,112.86H123.32v56.75h14.05V125.88h8.5c6,0,7.81,3,7.81,6.94s-1.82,7-7.81,7h-4.26v13h4c15.45,0,22.31-8.5,22.31-20S161.06,112.86,145.61,112.86Z"/><path class="cls-1" d="M27.9,112.86c-16.14,0-24.9,9.46-24.9,24.9v33H16.71V154.6H38.92v16.14H53v-33C53,122.32,44.13,112.86,27.9,112.86Zm11,29.59H16.71v-4.69c0-7.81,3.47-11.88,11.1-11.88S38.92,130,38.92,137.76Z"/><line class="cls-2" x1="3" y1="3" x2="167.92" y2="3"/><line class="cls-2" x1="3" y1="197.74" x2="167.92" y2="197.74"/><path class="cls-1" d="M38.48,32.14a21,21,0,0,0-5.62-3.07A23.55,23.55,0,0,0,26,28H20.68a21.34,21.34,0,0,0-6.86,1.1A21,21,0,0,0,8.2,32.14a15.44,15.44,0,0,0-3.78,4.55,12.4,12.4,0,0,0-.69,1.66l0,0v0A12.71,12.71,0,0,0,3,42.3v58.31H17.25V45.11a2.89,2.89,0,0,1,2.89-2.89h6.4a2.89,2.89,0,0,1,2.89,2.89v55.5H43.68V42.3a12.88,12.88,0,0,0-1.42-5.61,16.78,16.78,0,0,0-3.78-4.55"/><path class="cls-1" d="M64.87,32.14a20.82,20.82,0,0,0-5.61-3.07A23.61,23.61,0,0,0,52.4,28H47.08a21.38,21.38,0,0,0-5.86.81l.07.06a21.11,21.11,0,0,1,4.76,5.74l.08.15A17.2,17.2,0,0,1,48,42.22h4.92a2.89,2.89,0,0,1,2.89,2.89v55.5H70.08V42.3a12.88,12.88,0,0,0-1.42-5.61,16.64,16.64,0,0,0-3.79-4.55"/><path class="cls-1" d="M115.15,32.14a20.82,20.82,0,0,0-5.61-3.07,23.18,23.18,0,0,0-6.86-1.1H74.42v72.64H88.67V42.22h14.54a2.89,2.89,0,0,1,2.9,2.89v7.11a2.9,2.9,0,0,1-2.9,2.9H93V69.37h10.2a2.89,2.89,0,0,1,2.9,2.89v11.2a2.9,2.9,0,0,1-2.9,2.9H93v14.25h9.67a21.75,21.75,0,0,0,6.86-1.1,20.82,20.82,0,0,0,5.61-3.07,15.36,15.36,0,0,0,3.79-4.56,13,13,0,0,0,1.42-5.61V70.83a9.47,9.47,0,0,0-1-3.93,12.36,12.36,0,0,0-2.24-3.07,20.62,20.62,0,0,0-1.93-1.58h0l1.48-1.2a4,4,0,0,0,.42-.38,12.9,12.9,0,0,0,2.24-3,9.47,9.47,0,0,0,1-3.93V42.3a12.94,12.94,0,0,0-1.42-5.6,15.24,15.24,0,0,0-3.79-4.56"/><rect class="cls-1" x="124.7" y="27.97" width="14.25" height="72.64"/><path class="cls-1" d="M153.67,28V52.22a2.9,2.9,0,0,1-2.89,2.9h-7.49V69.37h7.49a2.89,2.89,0,0,1,2.89,2.89v28.35h14.25V28Z"/></g></g></svg>