<svg width="27" height="62" viewBox="0 0 27 62" fill="none" xmlns="http://www.w3.org/2000/svg">
<path d="M6.52113 61.9924C6.52113 56.827 6.4151 51.7979 6.56658 46.7764C6.63474 44.6708 5.95309 43.9968 3.93843 44.2467C2.62918 44.3203 1.31683 44.3203 0.00757391 44.2467V40.2325C0 35.8245 0 31.4241 0 27.0236C0 23.9941 1.61324 22.1839 4.65795 22.1385C10.4091 22.0476 16.1602 22.0476 21.9113 22.1385C24.4864 22.1763 26.3723 23.7896 26.4102 26.0769C26.5162 32.03 26.4102 37.9831 26.4102 44.2543C24.8954 44.2543 23.5246 44.3376 22.1461 44.2543C20.4117 44.1104 19.7603 44.7163 19.7982 46.5265C19.8967 51.6313 19.7982 56.7361 19.7982 61.9999L6.52113 61.9924Z" fill="white"/>
<path d="M13.2849 6.81057e-07C14.4568 0.0118184 15.6147 0.255375 16.6921 0.716641C17.7694 1.17791 18.7448 1.84777 19.5622 2.68764C20.3795 3.52751 21.0226 4.52079 21.4544 5.61027C21.8862 6.69976 22.0982 7.86391 22.0782 9.03567C22.0156 11.3641 21.0524 13.5776 19.3912 15.2105C17.7301 16.8434 15.5005 17.7684 13.1713 17.7911C10.8075 17.7165 8.56501 16.7273 6.91623 15.0319C5.26745 13.3365 4.34116 11.0673 4.33252 8.70242C4.39762 6.37169 5.36947 4.15832 7.04136 2.53311C8.71325 0.907898 10.9532 -0.000908198 13.2849 6.81057e-07Z" fill="white"/>
</svg>
